<svg xmlns="http://www.w3.org/2000/svg" aria-hidden="true" style="position:absolute;width:0;height:0;overflow:hidden">
    <defs>
        <symbol id="close1" fill="none" viewBox="0 0 24 24">
            <path fill="currentColor" stroke="currentColor" d="M17.6 5.925c.164 0 .266.049.346.129a.45.45 0 0 1 .13.346.45.45 0 0 1-.13.346L12.692 12l.354.354 4.9 4.9c.08.08.13.182.13.346s-.05.266-.13.346-.182.13-.346.13a.45.45 0 0 1-.347-.13l-4.9-4.9-.353-.353-5.254 5.254a.45.45 0 0 1-.347.128.45.45 0 0 1-.345-.128.45.45 0 0 1-.13-.347c0-.164.05-.266.13-.347L11.307 12l-.354-.353-4.9-4.9a.45.45 0 0 1-.128-.347.45.45 0 0 1 .129-.346.45.45 0 0 1 .345-.129c.165 0 .267.049.347.129l4.9 4.9.354.353 5.253-5.253a.45.45 0 0 1 .347-.129z"/>
        </symbol>
        <symbol id="cursor" fill="var(--color0, #332c22)" viewBox="0 0 28 28">
            <path d="m14.281 17.456-.085-.166c-.323-.62-1.101-1.023-1.792-.927-.593.081-1.088.575-1.262 1.271-.187.751-.052 1.475.219 2.179.44 1.148 1.138 2.13 1.997 2.998.595.601 1.069.591 1.654-.02.812-.849 1.471-1.802 1.928-2.888.27-.64.469-1.299.499-1.999.021-.505-.044-.992-.331-1.426-.366-.55-.967-.713-1.558-.422-.367.18-.658.45-.887.786-.131.192-.246.395-.382.614m11.44 3.227a5.9 5.9 0 0 1-.663 2.686c-.74 1.422-1.81 2.523-3.242 3.262-1.412.728-2.86.811-4.338.232-.6-.236-1.198-.479-1.783-.748-1.064-.49-2.122-.486-3.21-.079-.763.286-1.538.547-2.321.773a6.3 6.3 0 0 1-2.493.224c-.731-.083-1.35-.407-1.884-.897-.683-.626-1.23-1.356-1.575-2.217-.442-1.103-.335-2.168.308-3.173.504-.788 1.184-1.416 1.843-2.065.479-.473.947-.958 1.389-1.465.509-.586.812-1.292 1.064-2.018.234-.674.447-1.355.677-2.03.167-.487.473-.892.775-1.303.728-.99 1.767-1.422 2.913-1.677 1.359-.302 2.543.087 3.554.981.621.55 1.16 1.194 1.738 1.793.986 1.02 2.032 1.973 3.204 2.778.583.4 1.195.76 1.773 1.167.828.582 1.526 1.289 1.952 2.227.223.491.311 1.012.318 1.55M12.377 6.65c.003.757-.132 1.575-.49 2.344-.385.822-.94 1.472-1.855 1.725-.752.208-1.446.04-2.094-.364-.851-.532-1.427-1.303-1.856-2.191a7.66 7.66 0 0 1-.734-4.078c.075-.842.313-1.63.784-2.345C6.943.507 8.402.158 9.669.91c.822.487 1.399 1.199 1.837 2.03.597 1.133.881 2.344.871 3.71M21.231 4.392c.001 1.544-.283 2.839-.986 4.024-.392.663-.894 1.227-1.589 1.59-1.014.53-2.132.336-2.928-.494-.631-.656-.973-1.455-1.157-2.33-.316-1.512-.153-2.989.383-4.425.259-.696.637-1.332 1.181-1.845.502-.473 1.073-.843 1.785-.903.905-.075 1.616.309 2.185.987.586.7.878 1.529 1.024 2.414.062.381.08.77.102.982M0 11.834c.013-.69.144-1.338.554-1.9.536-.735 1.286-1.006 2.172-.95.896.055 1.659.443 2.344.989 1.22.973 2.028 2.215 2.349 3.752.142.68.152 1.367-.086 2.03-.408 1.138-1.341 1.726-2.557 1.632-.757-.059-1.423-.361-2.034-.792-1.316-.928-2.164-2.19-2.594-3.732-.092-.331-.1-.686-.148-1.03M27.813 9.758c-.204 2.142-1.075 3.797-2.764 4.99q-.707.494-1.574.58c-.974.1-1.86-.45-2.227-1.388-.322-.825-.303-1.67-.1-2.51.39-1.618 1.259-2.924 2.625-3.882a3 3 0 0 1 2.03-.536c.857.072 1.582.715 1.833 1.662.101.382.13.784.177 1.084"/>
        </symbol>
        <symbol id="add" fill="none" viewBox="0 0 24 24">
            <path fill="currentColor" d="M11.148 12.852H5.702a.82.82 0 0 1-.606-.247.83.83 0 0 1-.245-.61q0-.362.245-.604a.83.83 0 0 1 .606-.243h5.446V5.702q0-.36.247-.608a.82.82 0 0 1 .61-.25.8.8 0 0 1 .604.25.84.84 0 0 1 .243.608v5.446h5.446a.83.83 0 0 1 .609.247.82.82 0 0 1 .249.61.8.8 0 0 1-.25.604.84.84 0 0 1-.608.243h-5.446v5.446a.82.82 0 0 1-.247.606.83.83 0 0 1-.61.246.82.82 0 0 1-.604-.246.83.83 0 0 1-.243-.606z"/>
        </symbol>
        <symbol id="star-filled" fill="none" viewBox="0 0 24 24">
            <path fill="currentColor" d="M11.07 3.612c.345-.816 1.515-.816 1.86 0l2.028 4.82c.145.343.473.579.849.608l5.266.418c.892.07 1.254 1.17.574 1.745L17.635 14.6a.99.99 0 0 0-.324.985l1.225 5.077c.208.86-.74 1.54-1.503 1.08l-4.508-2.721a1.02 1.02 0 0 0-1.05 0l-4.508 2.72c-.764.461-1.711-.219-1.503-1.079l1.225-5.077a.99.99 0 0 0-.324-.985l-4.012-3.396c-.68-.575-.318-1.675.574-1.745l5.266-.418c.377-.03.704-.265.85-.609z"/>
        </symbol>
        <symbol id="icon-logo" viewBox="0 0 98 32">
            <path d="m16.765 20.493-.1-.196c-.379-.728-1.293-1.2-2.104-1.088-.697.096-1.277.675-1.481 1.493-.22.882-.061 1.732.256 2.558.517 1.348 1.336 2.5 2.345 3.52.698.705 1.254.693 1.941-.024.954-.996 1.727-2.115 2.264-3.39.316-.751.549-1.525.585-2.346.026-.593-.051-1.165-.389-1.674-.429-.647-1.134-.837-1.828-.496a2.7 2.7 0 0 0-1.042.922c-.154.225-.289.464-.448.722zm13.429 3.788a6.96 6.96 0 0 1-.778 3.153c-.868 1.669-2.124 2.962-3.806 3.829-1.658.855-3.356.952-5.092.272a39 39 0 0 1-2.094-.878c-1.248-.576-2.491-.57-3.768-.092-.897.336-1.806.642-2.726.908a7.4 7.4 0 0 1-2.926.263c-.859-.098-1.584-.478-2.213-1.054-.802-.734-1.443-1.591-1.848-2.602-.519-1.295-.394-2.545.361-3.726.591-.924 1.39-1.662 2.163-2.424a31 31 0 0 0 1.631-1.719c.598-.687.954-1.517 1.25-2.369.275-.791.524-1.59.795-2.382.196-.572.555-1.048.91-1.531.854-1.161 2.073-1.669 3.419-1.968 1.595-.355 2.986.103 4.172 1.152.73.646 1.362 1.402 2.041 2.105 1.157 1.198 2.385 2.316 3.76 3.261.685.47 1.403.892 2.082 1.37.971.684 1.791 1.514 2.291 2.615.262.577.366 1.188.374 1.819zM14.531 7.806c.003.889-.155 1.85-.576 2.752-.451.965-1.104 1.729-2.177 2.026-.883.245-1.698.048-2.458-.427-1-.624-1.676-1.53-2.179-2.572a9 9 0 0 1-.862-4.788c.088-.988.368-1.912.92-2.752.952-1.449 2.664-1.859 4.152-.977.966.572 1.642 1.407 2.156 2.383.701 1.33 1.035 2.752 1.023 4.356zM24.924 5.156c.002 1.812-.333 3.333-1.157 4.724-.461.778-1.05 1.44-1.865 1.866-1.191.623-2.503.395-3.438-.579-.74-.771-1.142-1.709-1.357-2.735-.372-1.775-.18-3.509.449-5.195.304-.816.749-1.563 1.387-2.166.589-.555 1.259-.99 2.095-1.06 1.063-.088 1.898.362 2.565 1.159.688.821 1.031 1.794 1.202 2.833.073.448.096.904.121 1.153zM0 13.892c.015-.809.169-1.57.65-2.23.629-.863 1.509-1.181 2.549-1.116 1.052.066 1.948.521 2.753 1.162 1.433 1.142 2.38 2.601 2.757 4.405.167.798.179 1.604-.1 2.382-.48 1.337-1.575 2.027-3.003 1.917-.888-.069-1.67-.424-2.387-.929-1.546-1.09-2.541-2.571-3.045-4.382-.108-.389-.119-.805-.174-1.208zM32.527 11.367c-.24 2.514-1.262 4.457-3.246 5.857a3.8 3.8 0 0 1-1.847.682c-1.144.116-2.184-.528-2.615-1.63-.378-.969-.356-1.96-.118-2.947.458-1.899 1.478-3.433 3.082-4.557.71-.498 1.516-.701 2.382-.629 1.007.084 1.858.84 2.153 1.951.119.449.153.921.208 1.273zM79.681 19.706h2.314l-3.051 3.692 3.32 4.009h-2.383l-3.148-3.905v3.905h-2.101v-7.701h2.101v3.74zM73.179 23.542q0 .964-.262 1.708-.255.744-.751 1.26-.489.51-1.185.771a4.4 4.4 0 0 1-1.557.262 4.1 4.1 0 0 1-1.495-.262 3.3 3.3 0 0 1-1.178-.771 3.6 3.6 0 0 1-.771-1.26q-.269-.744-.269-1.708 0-1.28.455-2.17c.455-.89.735-1.042 1.295-1.35q.84-.462 2.004-.462 1.081 0 1.915.462.84.462 1.316 1.35.483.888.482 2.17zm-5.324 0q0 .758.165 1.274c.165.516.282.604.517.778q.352.262.916.262.558 0 .902-.262.351-.261.51-.778.165-.516.165-1.274 0-.765-.165-1.267-.158-.51-.51-.765c-.352-.255-.539-.255-.916-.255q-.834 0-1.212.572-.372.572-.372 1.715M64.259 19.706v7.701h-2.108v-6.123h-2.79v6.123H57.26v-7.701zM52.17 19.547q1.55 0 2.376.675c.826.675.826 1.134.826 2.053v5.131h-1.467l-.406-1.047h-.055q-.33.413-.675.675c-.345.262-.494.303-.792.386a4.1 4.1 0 0 1-1.088.124q-.682 0-1.226-.262a1.95 1.95 0 0 1-.847-.799q-.31-.544-.31-1.378 0-1.226.861-1.805.861-.585 2.583-.647l1.336-.041v-.337q0-.606-.317-.889c-.317-.283-.505-.282-.882-.282q-.558 0-1.095.158c-.537.158-.716.239-1.075.399l-.696-1.419a6 6 0 0 1 1.371-.51 6.7 6.7 0 0 1 1.577-.186zm1.116 4.291-.813.028q-1.02.027-1.419.365-.393.337-.392.889 0 .482.282.689.282.2.737.2.675 0 1.136-.399.47-.399.469-1.137zM46.921 27.406h-2.128v-8.293h-2.466l-.179 1.412q-.096.765-.2 1.543a46 46 0 0 1-.22 1.481q-.11.702-.22 1.233-.18.881-.489 1.502-.303.613-.833.937-.523.324-1.371.324a3.488 3.488 0 0 1-1.019-.151v-1.75q.18.062.358.103.18.034.393.034.275 0 .455-.179.186-.186.33-.627.145-.447.289-1.233.062-.344.166-.971.103-.633.234-1.481.131-.854.268-1.86.145-1.005.276-2.094h6.358v10.07zM94.236 6.651q1.55 0 2.376.675c.826.675.826 1.134.826 2.053v5.131h-1.467l-.406-1.047h-.055q-.33.414-.675.675c-.345.261-.494.303-.792.386a4.1 4.1 0 0 1-1.088.124q-.682 0-1.226-.262a1.95 1.95 0 0 1-.847-.799q-.31-.544-.31-1.378 0-1.226.861-1.805.861-.585 2.583-.647l1.336-.041v-.338q0-.606-.317-.889c-.317-.283-.505-.282-.882-.282q-.558 0-1.095.158c-.537.158-.716.239-1.075.399l-.695-1.419a6 6 0 0 1 1.37-.51 6.7 6.7 0 0 1 1.577-.186zm1.116 4.291-.813.028q-1.02.027-1.419.365-.392.337-.392.889 0 .482.282.689.282.2.737.2.675 0 1.137-.399.468-.4.468-1.136v-.634zM87.678 6.809h2.314l-3.051 3.692 3.32 4.009h-2.383l-3.148-3.905v3.905h-2.101V6.809h2.101v3.74zM75.673 6.809v2.962h2.934V6.809h2.101v7.701h-2.101v-3.175h-2.934v3.175h-2.101V6.809zM65.719 6.809v3.044q0 .234-.021.592-.014.351-.041.716c-.027.365-.037.461-.055.654q-.028.29-.041.393l3.554-5.4h2.528v7.701h-2.032v-3.072q0-.379.028-.833.027-.462.062-.868c.035-.406.039-.475.048-.613l-3.54 5.386h-2.521V6.808h2.032zM62.531 8.386H60.01v6.123h-2.101V8.386h-2.528V6.809h7.149zM51.069 6.651q1.55 0 2.376.675c.826.675.827 1.134.827 2.053v5.131h-1.467l-.407-1.047h-.055q-.33.414-.675.675c-.345.261-.494.303-.792.386a4.1 4.1 0 0 1-1.088.124q-.682 0-1.226-.262a1.95 1.95 0 0 1-.847-.799q-.31-.544-.31-1.378 0-1.226.861-1.805.861-.585 2.583-.647l1.336-.041v-.338q0-.606-.317-.889c-.317-.283-.505-.282-.882-.282q-.558 0-1.095.158c-.537.158-.716.239-1.075.399l-.696-1.419a6 6 0 0 1 1.37-.51 6.7 6.7 0 0 1 1.577-.186zm1.116 4.291-.813.028q-1.02.027-1.419.365-.393.337-.393.889 0 .482.282.689.282.2.737.2.675 0 1.137-.399.468-.4.468-1.136v-.634zM47.095 14.51h-2.438l-2.342-3.809-2.342 3.809h-2.287l3.34-5.193-3.127-4.877h2.356l2.17 3.623 2.128-3.623h2.3l-3.161 4.994 3.402 5.076z"/>
        </symbol>
        <symbol id="star-half" fill="none" viewBox="0 0 24 24">
            <path fill="url(#paint0_linear_8242_16266)" stroke="currentColor" d="M11.531 3.807a.512.512 0 0 1 .938 0l2.028 4.818c.218.519.71.87 1.27.914l5.266.417a.491.491 0 0 1 .291.865l-4.012 3.396c-.43.363-.62.937-.488 1.485l1.227 5.076c.1.412-.362.774-.76.534h-.001l-4.507-2.72a1.52 1.52 0 0 0-1.566 0l-4.508 2.72c-.398.24-.86-.122-.76-.534l1.227-5.076a1.49 1.49 0 0 0-.488-1.485L2.676 10.82a.491.491 0 0 1 .29-.865l5.266-.417a1.51 1.51 0 0 0 1.27-.914z"/>
            <defs>
                <linearGradient id="paint0_linear_8242_16266" x1="2" x2="22" y1="12.372" y2="12.372" gradientUnits="userSpaceOnUse"/>
            </defs>
        </symbol>
        <symbol id="facebook" fill="none" viewBox="0 0 24 24">
            <path fill="currentColor" d="M22 12.304c0-5.557-4.477-10.061-10-10.061S2 6.747 2 12.303c0 5.023 3.657 9.185 8.438 9.94v-7.03h-2.54v-2.91h2.54v-2.216c0-2.521 1.492-3.914 3.777-3.914 1.094 0 2.238.196 2.238.196v2.476h-1.26c-1.243 0-1.63.776-1.63 1.572v1.887h2.773l-.443 2.908h-2.33v7.03c4.78-.754 8.437-4.916 8.437-9.938"/>
        </symbol>
        <symbol id="instagram" fill="currentColor" viewBox="0 0 24 24">
            <path d="M11.999 4.62c2.404 0 2.689.012 3.634.054.88.039 1.353.186 1.67.31.418.161.72.358 1.033.67.317.317.51.616.675 1.034.123.317.27.795.31 1.67.042.95.052 1.234.052 3.635s-.01 2.69-.053 3.635c-.038.88-.186 1.353-.309 1.67a2.8 2.8 0 0 1-.671 1.033c-.317.317-.616.51-1.034.675-.316.123-.794.27-1.67.31-.949.042-1.233.052-3.634.052s-2.69-.01-3.635-.053c-.88-.038-1.354-.186-1.67-.309a2.8 2.8 0 0 1-1.034-.672 2.8 2.8 0 0 1-.675-1.033c-.123-.316-.27-.794-.31-1.67-.041-.949-.052-1.234-.052-3.635s.01-2.688.053-3.634c.039-.88.186-1.354.31-1.67.161-.419.358-.72.67-1.034.317-.317.616-.51 1.034-.675.317-.123.795-.27 1.67-.31.946-.041 1.23-.052 3.635-.052zm0-1.62c-2.443 0-2.749.011-3.709.053-.956.043-1.613.197-2.183.419a4.4 4.4 0 0 0-1.595 1.04 4.4 4.4 0 0 0-1.04 1.593c-.222.573-.377 1.226-.42 2.182C3.012 9.251 3 9.557 3 12s.01 2.749.053 3.709c.042.956.197 1.614.418 2.183a4.4 4.4 0 0 0 1.04 1.595 4.4 4.4 0 0 0 1.593 1.037c.573.222 1.227.377 2.183.419.96.042 1.265.053 3.708.053s2.75-.01 3.71-.053c.955-.042 1.613-.197 2.182-.419a4.4 4.4 0 0 0 1.592-1.037c.499-.5.809-1.001 1.037-1.592.222-.573.376-1.227.419-2.183.042-.96.053-1.265.053-3.708s-.011-2.749-.053-3.709c-.043-.956-.197-1.614-.419-2.183a4.2 4.2 0 0 0-1.03-1.6 4.4 4.4 0 0 0-1.592-1.036c-.573-.222-1.227-.377-2.183-.419C14.748 3.011 14.443 3 12 3z"/>
            <path d="M11.998 7.377a4.624 4.624 0 0 0 0 9.245 4.623 4.623 0 0 0 0-9.245m0 7.62a2.998 2.998 0 1 1 0-5.996 2.998 2.998 0 0 1 0 5.997M17.881 7.194a1.08 1.08 0 1 1-2.158 0 1.08 1.08 0 0 1 2.158 0"/>
        </symbol>
        <symbol id="arrow_forward" fill="none" viewBox="0 0 24 24">
            <path fill="currentColor" stroke="currentColor" d="M11.995 4.69c.071 0 .133.017.195.06l.061.053 6.948 6.948a.4.4 0 0 1 .091.125v.001a.3.3 0 0 1 .024.124.3.3 0 0 1-.024.122v.001a.4.4 0 0 1-.09.125l-6.955 6.948c-.091.09-.17.116-.253.116-.08 0-.153-.024-.236-.11l-.005-.005-.052-.06a.3.3 0 0 1-.056-.183c0-.065.014-.122.056-.182l.052-.06 6.361-6.361H4.702c-.122 0-.194-.036-.255-.096-.062-.061-.096-.134-.096-.256s.034-.195.095-.256h.001c.06-.06.133-.096.255-.096h13.41l-6.355-6.355a.35.35 0 0 1-.106-.185l-.005-.067c-.001-.09.025-.163.105-.244l.001-.001a.31.31 0 0 1 .243-.107z"/>
        </symbol>
        <symbol id="arrow_back" fill="none" viewBox="0 0 24 24">
            <path fill="currentColor" stroke="currentColor" d="M12.008 4.687c.085 0 .159.026.241.108a.34.34 0 0 1 .108.249c0 .087-.026.16-.108.243l-6.361 6.361h13.41c.121 0 .197.036.26.1.063.06.097.132.097.252s-.034.192-.096.253a.34.34 0 0 1-.261.099H5.888l6.355 6.355c.082.081.11.158.111.25v.001a.3.3 0 0 1-.055.185l-.052.061a.31.31 0 0 1-.242.106.34.34 0 0 1-.256-.113L4.801 12.25a.4.4 0 0 1-.091-.125v-.001a.3.3 0 0 1-.023-.124q0-.07.023-.122v-.001a.4.4 0 0 1 .09-.125l6.951-6.95a.35.35 0 0 1 .257-.114z"/>
        </symbol>
        <symbol id="menu" fill="none" viewBox="0 0 24 24">
            <path fill="currentColor" d="M3.702 18.221a.82.82 0 0 1-.606-.247.84.84 0 0 1-.245-.615q0-.362.245-.605a.83.83 0 0 1 .606-.242h16.596q.36 0 .61.247c.25.247.248.367.248.609q0 .37-.249.61a.84.84 0 0 1-.61.243zm0-5.37a.82.82 0 0 1-.606-.246.83.83 0 0 1-.245-.61q0-.362.245-.604a.83.83 0 0 1 .606-.243h16.596q.36 0 .61.247a.83.83 0 0 1 .248.61.84.84 0 0 1-.858.847zm0-5.363a.82.82 0 0 1-.606-.247.84.84 0 0 1-.245-.615q0-.362.245-.605a.83.83 0 0 1 .606-.242h16.596q.36 0 .61.247c.25.247.248.367.248.609q0 .369-.249.61a.84.84 0 0 1-.61.243z"/>
        </symbol>
        <symbol id="star-outline" fill="none" viewBox="0 0 24 24">
            <path stroke="currentColor" stroke-width="2" d="m12.008 4.001 2.028 4.818a2.01 2.01 0 0 0 1.691 1.218l5.258.416-3.996 3.382a1.99 1.99 0 0 0-.65 1.984l1.223 5.066q-.003 0-.004.003l-.008-.004-4.509-2.72a2.02 2.02 0 0 0-2.082 0l-4.509 2.72-.008.004-.005-.003 1.224-5.066a1.99 1.99 0 0 0-.546-1.89l-.103-.094-3.998-3.382 5.259-.416a2 2 0 0 0 1.69-1.218l2.028-4.818L12 4z"/>
        </symbol>
        <symbol id="icon-logo" viewBox="0 0 98 32">
            <path d="m16.765 20.493-.1-.196c-.379-.728-1.293-1.2-2.104-1.088-.697.096-1.277.675-1.481 1.493-.22.882-.061 1.732.256 2.558.517 1.348 1.336 2.5 2.345 3.52.698.705 1.254.693 1.941-.024.954-.996 1.727-2.115 2.264-3.39.316-.751.549-1.525.585-2.346.026-.593-.051-1.165-.389-1.674-.429-.647-1.134-.837-1.828-.496a2.7 2.7 0 0 0-1.042.922c-.154.225-.289.464-.448.722zm13.429 3.788a6.96 6.96 0 0 1-.778 3.153c-.868 1.669-2.124 2.962-3.806 3.829-1.658.855-3.356.952-5.092.272a39 39 0 0 1-2.094-.878c-1.248-.576-2.491-.57-3.768-.092-.897.336-1.806.642-2.726.908a7.4 7.4 0 0 1-2.926.263c-.859-.098-1.584-.478-2.213-1.054-.802-.734-1.443-1.591-1.848-2.602-.519-1.295-.394-2.545.361-3.726.591-.924 1.39-1.662 2.163-2.424a31 31 0 0 0 1.631-1.719c.598-.687.954-1.517 1.25-2.369.275-.791.524-1.59.795-2.382.196-.572.555-1.048.91-1.531.854-1.161 2.073-1.669 3.419-1.968 1.595-.355 2.986.103 4.172 1.152.73.646 1.362 1.402 2.041 2.105 1.157 1.198 2.385 2.316 3.76 3.261.685.47 1.403.892 2.082 1.37.971.684 1.791 1.514 2.291 2.615.262.577.366 1.188.374 1.819zM14.531 7.806c.003.889-.155 1.85-.576 2.752-.451.965-1.104 1.729-2.177 2.026-.883.245-1.698.048-2.458-.427-1-.624-1.676-1.53-2.179-2.572a9 9 0 0 1-.862-4.788c.088-.988.368-1.912.92-2.752.952-1.449 2.664-1.859 4.152-.977.966.572 1.642 1.407 2.156 2.383.701 1.33 1.035 2.752 1.023 4.356zM24.924 5.156c.002 1.812-.333 3.333-1.157 4.724-.461.778-1.05 1.44-1.865 1.866-1.191.623-2.503.395-3.438-.579-.74-.771-1.142-1.709-1.357-2.735-.372-1.775-.18-3.509.449-5.195.304-.816.749-1.563 1.387-2.166.589-.555 1.259-.99 2.095-1.06 1.063-.088 1.898.362 2.565 1.159.688.821 1.031 1.794 1.202 2.833.073.448.096.904.121 1.153zM0 13.892c.015-.809.169-1.57.65-2.23.629-.863 1.509-1.181 2.549-1.116 1.052.066 1.948.521 2.753 1.162 1.433 1.142 2.38 2.601 2.757 4.405.167.798.179 1.604-.1 2.382-.48 1.337-1.575 2.027-3.003 1.917-.888-.069-1.67-.424-2.387-.929-1.546-1.09-2.541-2.571-3.045-4.382-.108-.389-.119-.805-.174-1.208zM32.527 11.367c-.24 2.514-1.262 4.457-3.246 5.857a3.8 3.8 0 0 1-1.847.682c-1.144.116-2.184-.528-2.615-1.63-.378-.969-.356-1.96-.118-2.947.458-1.899 1.478-3.433 3.082-4.557.71-.498 1.516-.701 2.382-.629 1.007.084 1.858.84 2.153 1.951.119.449.153.921.208 1.273zM79.681 19.706h2.314l-3.051 3.692 3.32 4.009h-2.383l-3.148-3.905v3.905h-2.101v-7.701h2.101v3.74zM73.179 23.542q0 .964-.262 1.708-.255.744-.751 1.26-.489.51-1.185.771a4.4 4.4 0 0 1-1.557.262 4.1 4.1 0 0 1-1.495-.262 3.3 3.3 0 0 1-1.178-.771 3.6 3.6 0 0 1-.771-1.26q-.269-.744-.269-1.708 0-1.28.455-2.17c.455-.89.735-1.042 1.295-1.35q.84-.462 2.004-.462 1.081 0 1.915.462.84.462 1.316 1.35.483.888.482 2.17zm-5.324 0q0 .758.165 1.274c.165.516.282.604.517.778q.352.262.916.262.558 0 .902-.262.351-.261.51-.778.165-.516.165-1.274 0-.765-.165-1.267-.158-.51-.51-.765c-.352-.255-.539-.255-.916-.255q-.834 0-1.212.572-.372.572-.372 1.715M64.259 19.706v7.701h-2.108v-6.123h-2.79v6.123H57.26v-7.701zM52.17 19.547q1.55 0 2.376.675c.826.675.826 1.134.826 2.053v5.131h-1.467l-.406-1.047h-.055q-.33.413-.675.675c-.345.262-.494.303-.792.386a4.1 4.1 0 0 1-1.088.124q-.682 0-1.226-.262a1.95 1.95 0 0 1-.847-.799q-.31-.544-.31-1.378 0-1.226.861-1.805.861-.585 2.583-.647l1.336-.041v-.337q0-.606-.317-.889c-.317-.283-.505-.282-.882-.282q-.558 0-1.095.158c-.537.158-.716.239-1.075.399l-.696-1.419a6 6 0 0 1 1.371-.51 6.7 6.7 0 0 1 1.577-.186zm1.116 4.291-.813.028q-1.02.027-1.419.365-.393.337-.392.889 0 .482.282.689.282.2.737.2.675 0 1.136-.399.47-.399.469-1.137zM46.921 27.406h-2.128v-8.293h-2.466l-.179 1.412q-.096.765-.2 1.543a46 46 0 0 1-.22 1.481q-.11.702-.22 1.233-.18.881-.489 1.502-.303.613-.833.937-.523.324-1.371.324a3.488 3.488 0 0 1-1.019-.151v-1.75q.18.062.358.103.18.034.393.034.275 0 .455-.179.186-.186.33-.627.145-.447.289-1.233.062-.344.166-.971.103-.633.234-1.481.131-.854.268-1.86.145-1.005.276-2.094h6.358v10.07zM94.236 6.651q1.55 0 2.376.675c.826.675.826 1.134.826 2.053v5.131h-1.467l-.406-1.047h-.055q-.33.414-.675.675c-.345.261-.494.303-.792.386a4.1 4.1 0 0 1-1.088.124q-.682 0-1.226-.262a1.95 1.95 0 0 1-.847-.799q-.31-.544-.31-1.378 0-1.226.861-1.805.861-.585 2.583-.647l1.336-.041v-.338q0-.606-.317-.889c-.317-.283-.505-.282-.882-.282q-.558 0-1.095.158c-.537.158-.716.239-1.075.399l-.695-1.419a6 6 0 0 1 1.37-.51 6.7 6.7 0 0 1 1.577-.186zm1.116 4.291-.813.028q-1.02.027-1.419.365-.392.337-.392.889 0 .482.282.689.282.2.737.2.675 0 1.137-.399.468-.4.468-1.136v-.634zM87.678 6.809h2.314l-3.051 3.692 3.32 4.009h-2.383l-3.148-3.905v3.905h-2.101V6.809h2.101v3.74zM75.673 6.809v2.962h2.934V6.809h2.101v7.701h-2.101v-3.175h-2.934v3.175h-2.101V6.809zM65.719 6.809v3.044q0 .234-.021.592-.014.351-.041.716c-.027.365-.037.461-.055.654q-.028.29-.041.393l3.554-5.4h2.528v7.701h-2.032v-3.072q0-.379.028-.833.027-.462.062-.868c.035-.406.039-.475.048-.613l-3.54 5.386h-2.521V6.808h2.032zM62.531 8.386H60.01v6.123h-2.101V8.386h-2.528V6.809h7.149zM51.069 6.651q1.55 0 2.376.675c.826.675.827 1.134.827 2.053v5.131h-1.467l-.407-1.047h-.055q-.33.414-.675.675c-.345.261-.494.303-.792.386a4.1 4.1 0 0 1-1.088.124q-.682 0-1.226-.262a1.95 1.95 0 0 1-.847-.799q-.31-.544-.31-1.378 0-1.226.861-1.805.861-.585 2.583-.647l1.336-.041v-.338q0-.606-.317-.889c-.317-.283-.505-.282-.882-.282q-.558 0-1.095.158c-.537.158-.716.239-1.075.399l-.696-1.419a6 6 0 0 1 1.37-.51 6.7 6.7 0 0 1 1.577-.186zm1.116 4.291-.813.028q-1.02.027-1.419.365-.393.337-.393.889 0 .482.282.689.282.2.737.2.675 0 1.137-.399.468-.4.468-1.136v-.634zM47.095 14.51h-2.438l-2.342-3.809-2.342 3.809h-2.287l3.34-5.193-3.127-4.877h2.356l2.17 3.623 2.128-3.623h2.3l-3.161 4.994 3.402 5.076z"/>
        </symbol>
        <symbol id="icon-add" viewBox="0 0 32 32">
            <path d="M14.864 17.136h-7.261c-0.321 0-0.59-0.11-0.808-0.329s-0.327-0.49-0.327-0.812c0-0.322 0.109-0.591 0.327-0.806s0.488-0.323 0.808-0.323h7.261v-7.261c0-0.32 0.11-0.591 0.329-0.812s0.49-0.332 0.812-0.332c0.322 0 0.591 0.111 0.806 0.332s0.323 0.492 0.323 0.812v7.261h7.261c0.32 0 0.591 0.11 0.812 0.329s0.332 0.49 0.332 0.812c0 0.322-0.111 0.591-0.332 0.806s-0.492 0.323-0.812 0.323h-7.261v7.261c0 0.321-0.11 0.59-0.329 0.808s-0.49 0.327-0.812 0.327c-0.322 0-0.591-0.109-0.806-0.327s-0.323-0.488-0.323-0.808v-7.261z"></path>
        </symbol>
    </defs>
</svg>